<svg xmlns="http://www.w3.org/2000/svg" viewBox="0 0 32 40" x="0px" y="0px"><g data-name="Layer 2"><path d="M29,30a1,1,0,0,1-.71-.29l-8-8a1,1,0,0,1,1.42-1.42l8,8a1,1,0,0,1,0,1.42A1,1,0,0,1,29,30Z"/><path d="M13.5,25A11.5,11.5,0,1,1,25,13.5,11.51,11.51,0,0,1,13.5,25Zm0-21A9.5,9.5,0,1,0,23,13.5,9.51,9.51,0,0,0,13.5,4Z"/></g><text x="0" y="47" fill="#000000" font-size="5px" font-weight="bold" font-family="'Helvetica Neue', Helvetica, Arial-Unicode, Arial, Sans-serif">Created by Rifaldi Ridha Aisy</text><text x="0" y="52" fill="#000000" font-size="5px" font-weight="bold" font-family="'Helvetica Neue', Helvetica, Arial-Unicode, Arial, Sans-serif">from the Noun Project</text></svg>