<svg xmlns="http://www.w3.org/2000/svg" viewBox="0 0 100 125" fill="none" x="0px" y="0px"><path fill-rule="evenodd" clip-rule="evenodd" d="M26.3193 16.5C27.5445 16.5 28.5891 17.3878 28.7866 18.5969L29.7303 24.3735L75.0759 24.2178C78.7292 24.2053 81.5457 27.433 81.0384 31.0509L77.5502 55.9291C77.1348 58.892 74.6001 61.096 71.6083 61.096H35.4292C32.4581 61.096 29.9343 58.9215 29.4951 55.983L25.9155 32.034L24.1946 21.5H17C15.6193 21.5 14.5 20.3807 14.5 19C14.5 17.6193 15.6193 16.5 17 16.5H26.3193ZM31.479 35.4318L34.4402 55.2438C34.5134 55.7336 34.934 56.096 35.4292 56.096H71.6083C72.107 56.096 72.5294 55.7287 72.5986 55.2349L76.0868 30.3566C76.1714 29.7536 75.702 29.2157 75.0931 29.2178L30.573 29.3707L30.8556 31.2614L31.4493 34.8953C31.4788 35.0762 31.4882 35.2558 31.479 35.4318ZM66.7485 76.9996C65.4699 76.9996 64.2108 75.8983 64.2108 74.2615C64.2108 72.6248 65.4699 71.5234 66.7485 71.5234C68.027 71.5234 69.2861 72.6248 69.2861 74.2615C69.2861 75.8983 68.027 76.9996 66.7485 76.9996ZM66.7485 81.9996C62.5855 81.9996 59.2108 78.5352 59.2108 74.2615C59.2108 69.9879 62.5855 66.5234 66.7485 66.5234C70.9114 66.5234 74.2861 69.9879 74.2861 74.2615C74.2861 78.5352 70.9114 81.9996 66.7485 81.9996ZM37.0761 74.2615C37.0761 75.8983 38.3351 76.9996 39.6137 76.9996C40.8923 76.9996 42.1513 75.8983 42.1513 74.2615C42.1513 72.6248 40.8923 71.5234 39.6137 71.5234C38.3351 71.5234 37.0761 72.6248 37.0761 74.2615ZM32.0761 74.2615C32.0761 78.5352 35.4508 81.9996 39.6137 81.9996C43.7766 81.9996 47.1513 78.5352 47.1513 74.2615C47.1513 69.9879 43.7766 66.5234 39.6137 66.5234C35.4508 66.5234 32.0761 69.9879 32.0761 74.2615Z" fill="black"/></svg>