<svg xmlns="http://www.w3.org/2000/svg" xmlns:xlink="http://www.w3.org/1999/xlink" xmlns:serif="http://www.serif.com/" viewBox="0 0 512 640" version="1.1" xml:space="preserve" style="" x="0px" y="0px" fill-rule="evenodd" clip-rule="evenodd" stroke-linejoin="round" stroke-miterlimit="2"><path d="M105.773,394.466C105.372,396.519 105.909,398.644 107.239,400.259C108.569,401.874 110.551,402.81 112.643,402.81L399.357,402.81C401.449,402.81 403.431,401.874 404.761,400.259C406.091,398.644 406.628,396.519 406.227,394.466C392.454,324.075 330.389,270.895 256,270.895C181.611,270.895 119.546,324.075 105.773,394.466ZM390.582,388.81C374.991,329.046 320.61,284.895 256,284.895C191.39,284.895 137.009,329.046 121.418,388.81L390.582,388.81ZM256,109.19C215.226,109.19 182.123,142.293 182.123,183.067C182.123,223.841 215.226,256.945 256,256.945C296.774,256.945 329.877,223.841 329.877,183.067C329.877,142.293 296.774,109.19 256,109.19ZM256,123.19C289.047,123.19 315.877,150.02 315.877,183.067C315.877,216.115 289.047,242.945 256,242.945C222.953,242.945 196.123,216.115 196.123,183.067C196.123,150.02 222.953,123.19 256,123.19Z"/></svg>